<?xml version="1.0" encoding="UTF-8" standalone="no"?>
<!-- Created with Inkscape (http://www.inkscape.org/) -->

<svg
   width="284.84656"
   height="47.264645"
   id="svg4400"
   version="1.1"
   inkscape:version="1.3 (0e150ed6c4, 2023-07-21)"
   sodipodi:docname="PrêtÀManger_logo.svg"
   inkscape:export-filename="PrêtÀManger_logo.png"
   inkscape:export-xdpi="477.31241"
   inkscape:export-ydpi="477.31241"
   xmlns:inkscape="http://www.inkscape.org/namespaces/inkscape"
   xmlns:sodipodi="http://sodipodi.sourceforge.net/DTD/sodipodi-0.dtd"
   xmlns="http://www.w3.org/2000/svg"
   xmlns:svg="http://www.w3.org/2000/svg"
   xmlns:rdf="http://www.w3.org/1999/02/22-rdf-syntax-ns#"
   xmlns:cc="http://creativecommons.org/ns#"
   xmlns:dc="http://purl.org/dc/elements/1.1/">
  <defs
     id="defs4402" />
  <sodipodi:namedview
     id="base"
     pagecolor="#ffffff"
     bordercolor="#666666"
     borderopacity="1.0"
     inkscape:pageopacity="0.0"
     inkscape:pageshadow="2"
     inkscape:zoom="11.313709"
     inkscape:cx="60.722795"
     inkscape:cy="-17.279922"
     inkscape:document-units="px"
     inkscape:current-layer="g4276"
     showgrid="false"
     fit-margin-top="0"
     fit-margin-left="0"
     fit-margin-right="0"
     fit-margin-bottom="0"
     inkscape:window-width="1920"
     inkscape:window-height="991"
     inkscape:window-x="-9"
     inkscape:window-y="-9"
     inkscape:window-maximized="1"
     inkscape:showpageshadow="2"
     inkscape:pagecheckerboard="0"
     inkscape:deskcolor="#d1d1d1" />
  <metadata
     id="metadata4405">
    <rdf:RDF>
      <cc:Work
         rdf:about="">
        <dc:format>image/svg+xml</dc:format>
        <dc:type
           rdf:resource="http://purl.org/dc/dcmitype/StillImage" />
      </cc:Work>
    </rdf:RDF>
  </metadata>
  <g
     inkscape:label="Layer 1"
     inkscape:groupmode="layer"
     id="layer1"
     transform="translate(-245.86102,-500.64718)">
    <g
       transform="matrix(1.5597569,0,0,-1.5597569,-391.01081,1712.4636)"
       id="g4276">
      <g
         transform="translate(434.8105,760.7144)"
         id="g3011">
        <path
           inkscape:connector-curvature="0"
           id="path3013"
           style="fill:#98002e;fill-opacity:1;fill-rule:evenodd;stroke:none"
           d="M 0,0 C 0,-2.364 -0.813,-4.348 -2.652,-6.572 V 6.51 C -1.061,5.065 0,2.514 0,0 m 2.299,0.111 c 0,3.289 -1.805,6.932 -4.528,9.015 -0.812,0.64 -1.271,0.922 -2.72,1.663 v -24.685 h 2.297 v 4.242 c 3.715,3.785 4.951,6.192 4.951,9.765" />
      </g>
      <g
         transform="translate(445.7148,760.7144)"
         id="g3015">
        <path
           inkscape:connector-curvature="0"
           id="path3017"
           style="fill:#98002e;fill-opacity:1;fill-rule:evenodd;stroke:none"
           d="M 0,0 C 0,-2.364 -0.816,-4.348 -2.656,-6.572 V 6.51 C -1.061,5.065 0,2.514 0,0 m 2.828,-13.97 v 2.301 c -1.945,0.427 -3.291,1.484 -4.244,3.359 2.936,3.257 3.717,5.06 3.717,8.382 0,3.328 -1.807,6.933 -4.53,9.054 -0.814,0.64 -1.273,0.922 -2.724,1.663 v -24.685 h 2.297 v 3.607 c 1.24,-2.263 3.043,-3.465 5.484,-3.681" />
      </g>
      <g
         transform="translate(457.6445,746.8188)"
         id="g3019">
        <path
           inkscape:connector-curvature="0"
           id="path3021"
           style="fill:#98002e;fill-opacity:1;fill-rule:evenodd;stroke:none"
           d="m 0,0 v 2.302 h -3.818 v 2.72 H 0 V 7.323 H -3.818 V 21.292 H 0 v 2.297 H -6.119 V 0 Z" />
      </g>
      <g
         transform="translate(468.5352,768.1108)"
         id="g3023">
        <path
           inkscape:connector-curvature="0"
           id="path3025"
           style="fill:#98002e;fill-opacity:1;fill-rule:evenodd;stroke:none"
           d="M 0,0 V 2.297 H -7.816 V 0 h 2.761 v -21.292 h 2.297 V 0 Z" />
      </g>
      <g
         transform="translate(482.8906,753.647)"
         id="g3027">
        <path
           inkscape:connector-curvature="0"
           id="path3029"
           style="fill:#98002e;fill-opacity:1;fill-rule:evenodd;stroke:none"
           d="m 0,0 h -2.471 l 1.237,6.565 z m 3.352,-6.776 -4.586,24.598 -4.59,-24.598 h 2.117 l 0.812,4.482 h 3.319 l 0.81,-4.482 z" />
      </g>
      <g
         transform="translate(506.7051,746.8706)"
         id="g3031">
        <path
           inkscape:connector-curvature="0"
           id="path3033"
           style="fill:#98002e;fill-opacity:1;fill-rule:evenodd;stroke:none"
           d="m 0,0 v 24.246 l -4.693,-6.6 -4.731,6.6 V 0 h 2.295 v 16.235 l 2.436,-3.282 2.4,3.282 V 0 Z" />
      </g>
      <g
         transform="translate(516.9961,753.647)"
         id="g3035">
        <path
           inkscape:connector-curvature="0"
           id="path3037"
           style="fill:#98002e;fill-opacity:1;fill-rule:evenodd;stroke:none"
           d="m 0,0 h -2.471 l 1.237,6.565 z M 3.354,-6.776 -1.234,17.822 -5.822,-6.776 h 2.117 l 0.812,4.482 h 3.317 l 0.812,-4.482 z" />
      </g>
      <g
         transform="translate(532.5957,746.8706)"
         id="g3039">
        <path
           inkscape:connector-curvature="0"
           id="path3041"
           style="fill:#98002e;fill-opacity:1;fill-rule:evenodd;stroke:none"
           d="m 0,0 v 23.54 h -2.293 v -7.481 l -5.471,7.94 V 0 h 2.295 v 16.341 l 3.176,-4.623 V 0 Z" />
      </g>
      <g
         transform="translate(545.7246,750.8579)"
         id="g3043">
        <path
           inkscape:connector-curvature="0"
           id="path3045"
           style="fill:#98002e;fill-opacity:1;fill-rule:evenodd;stroke:none"
           d="M 0,0 V 3.426 H -4.375 V 1.131 h 2.08 V 0.107 c 0,-1.341 -0.562,-2.047 -1.656,-2.047 -1.096,0 -1.66,0.706 -1.66,2.047 v 15.318 c 0,1.341 0.564,2.047 1.66,2.047 1.094,0 1.656,-0.706 1.656,-2.047 V 14.118 H 0 V 15.53 C 0,18 -1.658,19.765 -3.951,19.765 -6.246,19.765 -7.906,18 -7.906,15.53 V 0 c 0,-2.436 1.66,-4.234 3.955,-4.234 C -1.658,-4.234 0,-2.436 0,0" />
      </g>
      <g
         transform="translate(556.8047,746.8706)"
         id="g3047">
        <path
           inkscape:connector-curvature="0"
           id="path3049"
           style="fill:#98002e;fill-opacity:1;fill-rule:evenodd;stroke:none"
           d="M 0,0 V 2.293 H -3.813 V 5.012 H 0 v 2.294 h -3.813 v 13.94 H 0 V 23.54 H -6.105 V 0 Z" />
      </g>
      <g
         transform="translate(567.1836,760.7231)"
         id="g3051">
        <path
           inkscape:connector-curvature="0"
           id="path3053"
           style="fill:#98002e;fill-opacity:1;fill-rule:evenodd;stroke:none"
           d="M 0,0 C 0,-2.337 -0.803,-4.291 -2.615,-6.49 V 6.422 C -1.045,4.99 0,2.478 0,0 m 2.793,-13.784 v 2.269 c -1.918,0.419 -3.246,1.466 -4.188,3.315 2.897,3.211 3.665,4.989 3.665,8.27 0,3.281 -1.78,6.839 -4.467,8.934 -0.803,0.627 -1.256,0.905 -2.688,1.64 v -24.358 h 2.27 v 3.56 c 1.22,-2.234 3,-3.421 5.408,-3.63" />
      </g>
      <g
         transform="translate(583.7852,766.0708)"
         id="g3055">
        <path
           inkscape:connector-curvature="0"
           id="path3057"
           style="fill:#98002e;fill-opacity:1;fill-rule:evenodd;stroke:none"
           d="M 0,0 1.918,-5.624 H 7.152 L 2.963,-8.571 4.594,-13.689 0,-10.704 l -4.559,-2.946 1.629,5.079 -4.265,2.947 h 5.275 z" />
      </g>
      <g
         transform="translate(415.5078,765.9155)"
         id="g3059">
        <path
           inkscape:connector-curvature="0"
           id="path3061"
           style="fill:#98002e;fill-opacity:1;fill-rule:evenodd;stroke:none"
           d="M 0,0 1.918,-5.622 H 7.15 L 2.965,-8.571 4.592,-13.688 0,-10.703 l -4.559,-2.946 1.629,5.078 -4.263,2.949 h 5.271 z" />
      </g>
      <rect
         style="fill:#98002e;fill-opacity:1;stroke-width:0;stroke-dasharray:none"
         id="rect2"
         width="2.8621678"
         height="6.369894"
         x="1070.0796"
         y="-977.73834"
         transform="matrix(1,0,0.60711244,-0.79461594,0,0)" />
      <path
         id="rect2-3"
         style="fill:#98002e;stroke-width:0"
         d="M 1046.5428 -977.73834 L 1046.5424 -977.73361 L 1038.8139 -971.36874 L 1041.6752 -971.36874 L 1046.5434 -975.37771 L 1046.5425 -971.36874 L 1049.405 -971.36874 L 1049.4049 -977.73361 L 1049.4103 -977.73834 L 1049.404 -977.73834 L 1046.5478 -977.73834 L 1046.5428 -977.73834 z "
         transform="matrix(1,0,0.60711244,-0.79461594,0,0)" />
    </g>
  </g>
</svg>
